<mxfile host="app.diagrams.net" agent="Mozilla/5.0 (Windows NT 10.0; Win64; x64) AppleWebKit/537.36 (KHTML, like Gecko) Chrome/131.0.0.0 Safari/537.36" version="25.0.3">
  <diagram name="PÃ¡gina-1" id="rfF5L5rr7-fbEf72U88P">
    <mxGraphModel dx="875" dy="435" grid="1" gridSize="10" guides="1" tooltips="1" connect="1" arrows="1" fold="1" page="1" pageScale="1" pageWidth="827" pageHeight="1169" math="0" shadow="0">
      <root>
        <mxCell id="0" />
        <mxCell id="1" parent="0" />
        <mxCell id="QpTg18wdu1gbtIErvGfo-1" value="&lt;p style=&quot;margin:0px;margin-top:4px;text-align:center;&quot;&gt;&lt;b&gt;Pessoa&lt;/b&gt;&lt;/p&gt;&lt;hr size=&quot;1&quot; style=&quot;border-style:solid;&quot;&gt;&lt;p style=&quot;margin:0px;margin-left:4px;&quot;&gt;# nome: String&lt;/p&gt;&lt;p style=&quot;margin:0px;margin-left:4px;&quot;&gt;# cpf: String&lt;/p&gt;&lt;hr size=&quot;1&quot; style=&quot;border-style:solid;&quot;&gt;&lt;p style=&quot;margin:0px;margin-left:4px;&quot;&gt;+ verProduto(String produtoBuscado): void&lt;/p&gt;&lt;p style=&quot;margin:0px;margin-left:4px;&quot;&gt;+ falar(): void&lt;/p&gt;" style="verticalAlign=top;align=left;overflow=fill;html=1;whiteSpace=wrap;" vertex="1" parent="1">
          <mxGeometry x="289" y="50" width="250" height="120" as="geometry" />
        </mxCell>
        <mxCell id="QpTg18wdu1gbtIErvGfo-3" value="&lt;p style=&quot;margin:0px;margin-top:4px;text-align:center;&quot;&gt;&lt;b&gt;Vendedor&lt;/b&gt;&lt;/p&gt;&lt;hr size=&quot;1&quot; style=&quot;border-style:solid;&quot;&gt;&amp;nbsp;- identificacao: String&lt;div&gt;&lt;div style=&quot;height:2px;&quot;&gt;&lt;/div&gt;&lt;hr size=&quot;1&quot; style=&quot;border-style:solid;&quot;&gt;&lt;div style=&quot;height:2px;&quot;&gt;&amp;nbsp;+ falar(): void&lt;/div&gt;&lt;/div&gt;&lt;div style=&quot;height:2px;&quot;&gt;&amp;nbsp;&lt;/div&gt;&lt;div style=&quot;height:2px;&quot;&gt;&lt;br&gt;&lt;/div&gt;&lt;div style=&quot;height:2px;&quot;&gt;&lt;br&gt;&lt;/div&gt;&lt;div style=&quot;height:2px;&quot;&gt;&amp;nbsp;&lt;/div&gt;&lt;div style=&quot;height:2px;&quot;&gt;&lt;br&gt;&lt;/div&gt;&lt;div style=&quot;height:2px;&quot;&gt;&lt;br&gt;&lt;/div&gt;&lt;div style=&quot;height:2px;&quot;&gt;&lt;br&gt;&lt;/div&gt;&lt;div style=&quot;height:2px;&quot;&gt;&amp;nbsp;+ getInfo():void&lt;/div&gt;&lt;div style=&quot;height:2px;&quot;&gt;&lt;br&gt;&lt;/div&gt;&lt;div style=&quot;height:2px;&quot;&gt;&lt;br&gt;&lt;/div&gt;&lt;div style=&quot;height:2px;&quot;&gt;&lt;br&gt;&lt;/div&gt;&lt;div style=&quot;height:2px;&quot;&gt;&lt;br&gt;&lt;/div&gt;&lt;div style=&quot;height:2px;&quot;&gt;&amp;nbsp;&lt;/div&gt;&lt;div style=&quot;height:2px;&quot;&gt;&lt;br&gt;&lt;/div&gt;&lt;div style=&quot;height:2px;&quot;&gt;&lt;br&gt;&lt;/div&gt;&lt;div style=&quot;height:2px;&quot;&gt;&amp;nbsp;+ atenderPag(): void&lt;/div&gt;" style="verticalAlign=top;align=left;overflow=fill;html=1;whiteSpace=wrap;" vertex="1" parent="1">
          <mxGeometry x="180" y="250" width="180" height="120" as="geometry" />
        </mxCell>
        <mxCell id="QpTg18wdu1gbtIErvGfo-5" value="&lt;p style=&quot;margin:0px;margin-top:4px;text-align:center;&quot;&gt;&lt;b&gt;Cliente&lt;/b&gt;&lt;/p&gt;&lt;hr size=&quot;1&quot; style=&quot;border-style:solid;&quot;&gt;&amp;nbsp;- Cadastro: String&lt;div&gt;&amp;nbsp;- cupom: bool&lt;br&gt;&lt;div&gt;&lt;div style=&quot;height:2px;&quot;&gt;&lt;/div&gt;&lt;hr size=&quot;1&quot; style=&quot;border-style:solid;&quot;&gt;&lt;div style=&quot;height:2px;&quot;&gt;&amp;nbsp;+ falar(): void&lt;/div&gt;&lt;/div&gt;&lt;div style=&quot;height:2px;&quot;&gt;&amp;nbsp;&lt;/div&gt;&lt;div style=&quot;height:2px;&quot;&gt;&lt;br&gt;&lt;/div&gt;&lt;div style=&quot;height:2px;&quot;&gt;&lt;br&gt;&lt;/div&gt;&lt;div style=&quot;height:2px;&quot;&gt;&amp;nbsp;&lt;/div&gt;&lt;div style=&quot;height:2px;&quot;&gt;&lt;br&gt;&lt;/div&gt;&lt;div style=&quot;height:2px;&quot;&gt;&lt;br&gt;&lt;/div&gt;&lt;div style=&quot;height:2px;&quot;&gt;&lt;br&gt;&lt;/div&gt;&lt;div style=&quot;height:2px;&quot;&gt;&amp;nbsp;+ getInfo():void&lt;/div&gt;&lt;div style=&quot;height:2px;&quot;&gt;&lt;br&gt;&lt;/div&gt;&lt;div style=&quot;height:2px;&quot;&gt;&lt;br&gt;&lt;/div&gt;&lt;div style=&quot;height:2px;&quot;&gt;&lt;br&gt;&lt;/div&gt;&lt;div style=&quot;height:2px;&quot;&gt;&lt;br&gt;&lt;/div&gt;&lt;div style=&quot;height:2px;&quot;&gt;&amp;nbsp;&lt;/div&gt;&lt;div style=&quot;height:2px;&quot;&gt;&lt;br&gt;&lt;/div&gt;&lt;div style=&quot;height:2px;&quot;&gt;&lt;br&gt;&lt;/div&gt;&lt;div style=&quot;height:2px;&quot;&gt;&amp;nbsp;+ getCupom(): void&lt;/div&gt;&lt;/div&gt;" style="verticalAlign=top;align=left;overflow=fill;html=1;whiteSpace=wrap;" vertex="1" parent="1">
          <mxGeometry x="520" y="250" width="180" height="130" as="geometry" />
        </mxCell>
        <mxCell id="QpTg18wdu1gbtIErvGfo-10" style="edgeStyle=orthogonalEdgeStyle;rounded=1;orthogonalLoop=1;jettySize=auto;html=1;entryX=0.627;entryY=1.031;entryDx=0;entryDy=0;entryPerimeter=0;curved=0;startArrow=none;startFill=0;endArrow=block;endFill=0;" edge="1" parent="1" source="QpTg18wdu1gbtIErvGfo-5" target="QpTg18wdu1gbtIErvGfo-1">
          <mxGeometry relative="1" as="geometry" />
        </mxCell>
        <mxCell id="QpTg18wdu1gbtIErvGfo-11" style="edgeStyle=orthogonalEdgeStyle;rounded=1;orthogonalLoop=1;jettySize=auto;html=1;entryX=0.44;entryY=1.019;entryDx=0;entryDy=0;entryPerimeter=0;endArrow=block;endFill=0;curved=0;" edge="1" parent="1" source="QpTg18wdu1gbtIErvGfo-3" target="QpTg18wdu1gbtIErvGfo-1">
          <mxGeometry relative="1" as="geometry" />
        </mxCell>
        <mxCell id="QpTg18wdu1gbtIErvGfo-12" style="edgeStyle=orthogonalEdgeStyle;rounded=0;orthogonalLoop=1;jettySize=auto;html=1;entryX=0.002;entryY=0.459;entryDx=0;entryDy=0;entryPerimeter=0;endArrow=none;endFill=0;" edge="1" parent="1" source="QpTg18wdu1gbtIErvGfo-3" target="QpTg18wdu1gbtIErvGfo-5">
          <mxGeometry relative="1" as="geometry" />
        </mxCell>
        <mxCell id="QpTg18wdu1gbtIErvGfo-13" value="atende" style="text;html=1;align=center;verticalAlign=middle;whiteSpace=wrap;rounded=0;" vertex="1" parent="1">
          <mxGeometry x="410" y="280" width="60" height="30" as="geometry" />
        </mxCell>
        <mxCell id="QpTg18wdu1gbtIErvGfo-14" value="1..1" style="text;html=1;align=center;verticalAlign=middle;whiteSpace=wrap;rounded=0;" vertex="1" parent="1">
          <mxGeometry x="343" y="303" width="60" height="30" as="geometry" />
        </mxCell>
        <mxCell id="QpTg18wdu1gbtIErvGfo-15" value="1..*" style="text;html=1;align=center;verticalAlign=middle;whiteSpace=wrap;rounded=0;" vertex="1" parent="1">
          <mxGeometry x="472" y="304" width="60" height="30" as="geometry" />
        </mxCell>
      </root>
    </mxGraphModel>
  </diagram>
</mxfile>
